0
SECTION
2
HEADER
9
$INSUNITS
70
4
9
$ACADVER
1
AC1014
9
$HANDSEED
5
FFFF
0
ENDSEC
0
SECTION
2
TABLES
0
TABLE
2
VPORT
5
8
100
AcDbSymbolTable
0
ENDTAB
0
TABLE
2
LTYPE
5
5
100
AcDbSymbolTable
0
LTYPE
5
14
100
AcDbSymbolTableRecord
100
AcDbLinetypeTableRecord
2
BYBLOCK
70
0
0
LTYPE
5
15
100
AcDbSymbolTableRecord
100
AcDbLinetypeTableRecord
2
BYLAYER
70
0
0
ENDTAB
0
TABLE
2
LAYER
5
2
100
AcDbSymbolTable
70
2
0
LAYER
5
50
100
AcDbSymbolTableRecord
100
AcDbLayerTableRecord
2
0
70
0
6
CONTINUOUS
0
ENDTAB
0
TABLE
2
STYLE
5
3
100
AcDbSymbolTable
70
1
0
STYLE
5
11
100
AcDbSymbolTableRecord
100
AcDbTextStyleTableRecord
2
STANDARD
70
0
0
ENDTAB
0
TABLE
2
VIEW
5
6
100
AcDbSymbolTable
70
0
0
ENDTAB
0
TABLE
2
UCS
5
7
100
AcDbSymbolTable
70
0
0
ENDTAB
0
TABLE
2
APPID
5
9
100
AcDbSymbolTable
70
2
0
APPID
5
12
100
AcDbSymbolTableRecord
100
AcDbRegAppTableRecord
2
ACAD
70
0
0
ENDTAB
0
TABLE
2
DIMSTYLE
5
A
100
AcDbSymbolTable
70
1
0
ENDTAB
0
TABLE
2
BLOCK_RECORD
5
1
100
AcDbSymbolTable
70
1
0
BLOCK_RECORD
5
1F
100
AcDbSymbolTableRecord
100
AcDbBlockTableRecord
2
*MODEL_SPACE
0
BLOCK_RECORD
5
1B
100
AcDbSymbolTableRecord
100
AcDbBlockTableRecord
2
*PAPER_SPACE
0
ENDTAB
0
ENDSEC
0
SECTION
2
BLOCKS
0
BLOCK
5
20
100
AcDbEntity
100
AcDbBlockBegin
2
*MODEL_SPACE
0
ENDBLK
5
21
100
AcDbEntity
100
AcDbBlockEnd
0
BLOCK
5
1C
100
AcDbEntity
100
AcDbBlockBegin
2
*PAPER_SPACE
0
ENDBLK
5
1D
100
AcDbEntity
100
AcDbBlockEnd
0
ENDSEC
0
SECTION
2
ENTITIES
0
LWPOLYLINE
5
100
100
AcDbEntity
8
0
100
AcDbPolyline
90
90
70
1
43
0.0
10
165
20
48
10
165
20
42
10
162
20
42
10
162
20
36
10
165
20
36
10
165
20
30
10
162
20
30
10
162
20
24
10
165
20
24
10
165
20
18
10
162
20
18
10
162
20
12
10
165
20
12
10
165
20
3
10
157.5
20
3
10
157.5
20
6
10
151.5
20
6
10
151.5
20
3
10
145.5
20
3
10
145.5
20
6
10
139.5
20
6
10
139.5
20
3
10
133.5
20
3
10
133.5
20
6
10
127.5
20
6
10
127.5
20
3
10
121.5
20
3
10
121.5
20
6
10
115.5
20
6
10
115.5
20
3
10
109.5
20
3
10
109.5
20
6
10
103.5
20
6
10
103.5
20
3
10
97.5
20
3
10
97.5
20
6
10
91.5
20
6
10
91.5
20
3
10
85.5
20
3
10
85.5
20
6
10
79.5
20
6
10
79.5
20
3
10
73.5
20
3
10
73.5
20
6
10
67.499999999999986
20
6
10
67.5
20
3
10
61.5
20
3
10
61.5
20
6
10
55.5
20
6
10
55.5
20
3
10
49.5
20
3
10
49.5
20
6
10
43.5
20
6
10
43.5
20
3
10
37.5
20
3
10
37.5
20
6
10
31.500000000000004
20
6
10
31.500000000000004
20
3
10
25.5
20
3
10
25.5
20
6
10
19.5
20
6
10
19.5
20
3
10
13.499999999999998
20
3
10
13.5
20
6
10
7.5
20
6
10
7.5
20
3
10
0
20
3
10
0
20
6
10
0
20
12
10
3
20
11.999999999999996
10
3
20
18
10
0
20
18
10
0
20
24
10
3
20
24
10
3
20
30
10
0
20
30
10
0
20
36
10
3
20
36
10
3
20
42
10
0
20
42
10
0
20
48
10
3
20
48
10
3
20
53.999999999999993
10
0
20
53.999999999999993
10
0
20
63.000000000000007
10
165
20
63
10
165
20
60
10
165
20
53.999999999999993
10
162
20
53.999999999999993
10
162
20
48
0
LWPOLYLINE
5
101
100
AcDbEntity
8
0
100
AcDbPolyline
90
90
70
1
43
0.0
10
181.50000000000003
20
6
10
175.5
20
6
10
175.5
20
3
10
171
20
3
10
171
20
6
10
171
20
12
10
168
20
11.999999999999996
10
168
20
18
10
171
20
18
10
171
20
24
10
168
20
24
10
168
20
30
10
171
20
30
10
171
20
36
10
168
20
36
10
168
20
42
10
171
20
42
10
171
20
48
10
168
20
48
10
168
20
53.999999999999993
10
171
20
54
10
171
20
63.000000000000007
10
330
20
63.000000000000007
10
330
20
60
10
330
20
53.999999999999993
10
333.00000000000006
20
53.999999999999993
10
333
20
48
10
330
20
48
10
330.00000000000006
20
42
10
333.00000000000006
20
42
10
333.00000000000006
20
36
10
330
20
36
10
330.00000000000006
20
30
10
333.00000000000006
20
30
10
333
20
24
10
330
20
24
10
330.00000000000006
20
18
10
333.00000000000006
20
18
10
333
20
12
10
330
20
12
10
330
20
3
10
325.5
20
3
10
325.5
20
6
10
319.5
20
6
10
319.5
20
3
10
313.5
20
3
10
313.5
20
6
10
307.49999999999994
20
6
10
307.49999999999994
20
3
10
301.5
20
3
10
301.5
20
6
10
295.5
20
6
10
295.5
20
3
10
289.5
20
3
10
289.5
20
6
10
283.5
20
6
10
283.5
20
3
10
277.5
20
3
10
277.5
20
6
10
271.5
20
6
10
271.5
20
3
10
265.5
20
3
10
265.5
20
6
10
259.5
20
6
10
259.5
20
3
10
253.49999999999997
20
3
10
253.5
20
6
10
247.5
20
6
10
247.5
20
3
10
241.5
20
3
10
241.5
20
6
10
235.49999999999997
20
6
10
235.49999999999997
20
3
10
229.50000000000003
20
3
10
229.50000000000003
20
6
10
223.5
20
6
10
223.5
20
3
10
217.5
20
3
10
217.50000000000003
20
6
10
211.50000000000003
20
6
10
211.50000000000003
20
3
10
205.5
20
3
10
205.5
20
6
10
199.5
20
6
10
199.50000000000003
20
3
10
193.5
20
3
10
193.5
20
6
10
187.5
20
6
10
187.5
20
3
10
181.5
20
3
0
LWPOLYLINE
5
102
100
AcDbEntity
8
0
100
AcDbPolyline
90
90
70
1
43
0.0
10
151.5
20
66
10
145.5
20
66
10
145.5
20
69
10
139.5
20
69
10
139.5
20
66
10
133.5
20
66
10
133.5
20
69
10
127.5
20
69
10
127.5
20
66
10
121.5
20
66
10
121.5
20
69
10
115.5
20
69
10
115.5
20
66
10
109.5
20
66
10
109.5
20
69
10
103.5
20
69
10
103.5
20
66
10
97.5
20
66
10
97.5
20
69
10
91.5
20
69
10
91.5
20
66
10
85.5
20
66
10
85.5
20
69
10
79.5
20
69
10
79.5
20
66
10
73.5
20
66
10
73.5
20
69
10
67.499999999999986
20
69
10
67.499999999999986
20
66
10
61.5
20
66
10
61.5
20
69
10
55.5
20
69
10
55.5
20
66
10
49.5
20
66
10
49.5
20
69
10
43.5
20
69
10
43.5
20
66
10
37.5
20
66
10
37.5
20
69
10
31.500000000000004
20
69
10
31.500000000000004
20
66
10
25.5
20
66
10
25.5
20
69
10
19.5
20
69
10
19.5
20
66
10
13.499999999999998
20
66
10
13.5
20
69
10
7.5
20
69
10
7.5
20
66
10
0
20
66
10
0
20
69
10
0
20
75
10
3
20
75
10
3
20
81
10
0
20
81
10
0
20
87
10
3
20
87
10
3
20
93
10
0
20
93
10
0
20
99
10
3
20
99
10
3
20
105
10
0
20
105
10
0
20
111
10
3
20
111
10
3
20
117
10
0
20
117.00000000000001
10
0
20
126.00000000000001
10
165
20
126.00000000000001
10
165
20
123
10
165
20
117
10
162
20
117
10
162
20
111
10
165
20
111
10
165
20
105
10
162
20
105
10
162
20
99
10
165
20
99
10
165
20
93
10
162
20
93
10
162
20
87
10
165
20
87
10
165
20
81
10
162
20
81
10
162
20
75
10
165
20
75
10
165
20
66
10
157.5
20
66
10
157.5
20
69
10
151.5
20
69
0
LWPOLYLINE
5
103
100
AcDbEntity
8
0
100
AcDbPolyline
90
90
70
1
43
0.0
10
301.5
20
69
10
295.5
20
69
10
295.5
20
66
10
289.5
20
66
10
289.5
20
69
10
283.5
20
69
10
283.5
20
66
10
277.5
20
66
10
277.5
20
69
10
271.5
20
69
10
271.5
20
66
10
265.5
20
66
10
265.5
20
69
10
259.5
20
69
10
259.5
20
66
10
253.49999999999997
20
66
10
253.5
20
69
10
247.5
20
69
10
247.5
20
66
10
241.5
20
66
10
241.5
20
69
10
235.49999999999997
20
69
10
235.49999999999997
20
66
10
229.50000000000003
20
66
10
229.50000000000003
20
69
10
223.5
20
69
10
223.5
20
66
10
217.5
20
66
10
217.50000000000003
20
69
10
211.50000000000003
20
69
10
211.50000000000003
20
66
10
205.5
20
66
10
205.5
20
69
10
199.5
20
69
10
199.50000000000003
20
66
10
193.5
20
66
10
193.5
20
69
10
187.5
20
69
10
187.5
20
66
10
181.5
20
66
10
181.5
20
69
10
175.5
20
69
10
175.5
20
66
10
171
20
66
10
171
20
69
10
171
20
75
10
168
20
74.999999999999986
10
168
20
81
10
171
20
81
10
171
20
87
10
168
20
87
10
168
20
93
10
171
20
93
10
171
20
99
10
168
20
99
10
168
20
105
10
171
20
105
10
171
20
111
10
168
20
111
10
168
20
117
10
171
20
117
10
171
20
126.00000000000001
10
330
20
126.00000000000001
10
330
20
122.99999999999999
10
330
20
117
10
333.00000000000006
20
117
10
333.00000000000006
20
111
10
330
20
111
10
330
20
105
10
333.00000000000006
20
105
10
333.00000000000006
20
99
10
330
20
99
10
330.00000000000006
20
93
10
333.00000000000006
20
93
10
333
20
87
10
330
20
87
10
330
20
81
10
333.00000000000006
20
81
10
333
20
75
10
330
20
75
10
330
20
66
10
325.5
20
66
10
325.5
20
69
10
319.5
20
69
10
319.5
20
66
10
313.5
20
66
10
313.5
20
69
10
307.49999999999994
20
69
10
307.49999999999994
20
66
10
301.5
20
66
0
LWPOLYLINE
5
104
100
AcDbEntity
8
0
100
AcDbPolyline
90
212
70
1
43
0.0
10
336
20
124.50000000000001
10
339
20
124.50000000000001
10
339
20
130.5
10
336
20
130.5
10
336
20
136.5
10
339
20
136.5
10
339
20
142.5
10
336
20
142.5
10
336
20
148.5
10
339
20
148.5
10
339
20
154.5
10
336
20
154.5
10
336
20
160.5
10
339
20
160.5
10
339
20
165
10
343.5
20
165
10
343.5
20
168
10
349.5
20
168
10
349.49999999999994
20
165
10
355.5
20
165
10
355.5
20
168
10
361.5
20
168
10
361.5
20
165
10
367.5
20
165
10
367.5
20
168
10
373.5
20
168
10
373.5
20
165
10
379.5
20
165
10
379.5
20
168
10
385.5
20
168
10
385.5
20
165
10
391.5
20
165
10
391.5
20
168
10
397.5
20
168
10
397.5
20
165
10
403.5
20
165
10
403.5
20
168
10
409.5
20
168
10
409.5
20
165
10
415.50000000000006
20
165
10
415.50000000000006
20
168
10
421.50000000000006
20
168
10
421.50000000000006
20
165
10
427.49999999999994
20
165
10
427.49999999999994
20
168
10
433.49999999999994
20
168
10
433.49999999999994
20
165
10
439.49999999999994
20
165
10
439.49999999999994
20
168
10
445.5
20
168
10
445.5
20
165
10
451.5
20
165
10
451.5
20
168
10
457.5
20
168
10
457.5
20
165
10
463.5
20
165
10
463.5
20
168
10
469.49999999999994
20
168
10
469.49999999999994
20
165
10
475.5
20
165
10
475.5
20
168
10
481.5
20
168
10
481.5
20
165
10
487.5
20
165
10
487.5
20
168
10
493.5
20
168
10
493.5
20
165
10
498.00000000000006
20
165
10
498.00000000000006
20
160.5
10
501
20
160.5
10
501
20
154.5
10
498.00000000000006
20
154.5
10
498.00000000000006
20
148.5
10
501
20
148.5
10
501
20
142.5
10
498.00000000000006
20
142.49999999999997
10
498.00000000000006
20
136.5
10
501
20
136.5
10
501
20
130.5
10
498.00000000000006
20
130.5
10
498.00000000000006
20
124.50000000000001
10
501
20
124.50000000000001
10
501
20
118.5
10
498.00000000000006
20
118.5
10
498.00000000000006
20
112.5
10
501
20
112.5
10
501
20
106.5
10
498.00000000000006
20
106.5
10
498.00000000000006
20
100.5
10
501
20
100.5
10
501
20
94.5
10
498.00000000000006
20
94.5
10
498.00000000000006
20
88.5
10
501
20
88.5
10
501
20
82.5
10
498.00000000000006
20
82.5
10
498.00000000000006
20
76.5
10
501
20
76.5
10
501
20
70.5
10
498.00000000000006
20
70.5
10
498.00000000000006
20
64.5
10
501
20
64.5
10
501
20
58.5
10
498.00000000000006
20
58.5
10
498.00000000000006
20
52.5
10
501
20
52.5
10
501
20
46.5
10
498.00000000000006
20
46.499999999999993
10
498.00000000000006
20
40.5
10
501
20
40.5
10
501
20
34.5
10
498.00000000000006
20
34.5
10
498.00000000000006
20
28.5
10
501
20
28.5
10
501
20
22.5
10
498.00000000000006
20
22.5
10
498.00000000000006
20
16.5
10
501
20
16.5
10
501
20
10.5
10
498.00000000000006
20
10.5
10
498.00000000000006
20
6
10
493.5
20
6
10
493.5
20
3
10
487.5
20
3
10
487.5
20
6
10
481.5
20
6
10
481.5
20
3
10
475.5
20
3
10
475.5
20
6
10
469.49999999999994
20
6
10
469.5
20
3
10
463.5
20
3
10
463.5
20
6
10
457.5
20
6
10
457.5
20
3
10
451.5
20
3
10
451.5
20
6
10
445.5
20
6
10
445.5
20
3
10
439.49999999999994
20
3
10
439.49999999999994
20
6
10
433.49999999999994
20
6
10
433.49999999999994
20
3
10
427.49999999999994
20
3
10
427.5
20
6
10
421.50000000000006
20
6
10
421.50000000000006
20
3
10
415.50000000000006
20
3
10
415.50000000000006
20
6
10
409.5
20
6
10
409.5
20
3
10
403.5
20
3
10
403.5
20
6
10
397.5
20
6
10
397.5
20
3
10
391.5
20
3
10
391.5
20
6
10
385.5
20
6
10
385.5
20
3
10
379.5
20
3
10
379.5
20
6
10
373.5
20
6
10
373.5
20
3
10
367.5
20
3
10
367.5
20
6
10
361.5
20
6
10
361.5
20
3
10
355.5
20
3
10
355.50000000000006
20
6
10
349.5
20
6
10
349.5
20
3
10
343.5
20
3
10
343.5
20
6
10
339
20
6
10
339
20
10.5
10
336
20
10.5
10
336
20
16.5
10
339
20
16.500000000000004
10
339
20
22.5
10
336
20
22.5
10
336
20
28.5
10
339
20
28.5
10
339
20
34.5
10
336
20
34.499999999999993
10
336
20
40.5
10
339
20
40.5
10
339
20
46.5
10
336
20
46.5
10
336
20
52.5
10
339
20
52.5
10
339
20
58.5
10
336
20
58.5
10
336
20
64.5
10
339
20
64.500000000000014
10
339
20
70.5
10
336
20
70.5
10
336
20
76.5
10
339
20
76.5
10
339
20
82.5
10
336
20
82.5
10
336
20
88.5
10
339
20
88.5
10
339
20
94.5
10
336
20
94.5
10
336
20
100.5
10
339
20
100.5
10
339
20
106.5
10
336
20
106.5
10
336
20
112.5
10
339
20
112.5
10
339
20
118.5
10
336
20
118.50000000000001
0
LINE
5
105
100
AcDbEntity
8
0
100
AcDbLine
10
151.5
20
6
30
0
11
157.5
21
6
31
0
0
LINE
5
106
100
AcDbEntity
8
0
100
AcDbLine
10
162
20
12
30
0
11
162
21
18
31
0
0
CIRCLE
5
107
100
AcDbEntity
8
0
100
AcDbCircle
10
151.5
20
18
30
0
40
3.0000000000000018
0
ENDSEC
0
SECTION
2
OBJECTS
0
DICTIONARY
5
C
100
AcDbDictionary
3
ACAD_GROUP
350
D
3
ACAD_MLINESTYLE
350
17
0
DICTIONARY
5
D
100
AcDbDictionary
0
DICTIONARY
5
1A
330
C
100
AcDbDictionary
0
DICTIONARY
5
17
100
AcDbDictionary
0
ENDSEC
0
EOF
