0
SECTION
2
HEADER
9
$INSUNITS
70
4
9
$ACADVER
1
AC1014
9
$HANDSEED
5
FFFF
0
ENDSEC
0
SECTION
2
TABLES
0
TABLE
2
VPORT
5
8
100
AcDbSymbolTable
0
ENDTAB
0
TABLE
2
LTYPE
5
5
100
AcDbSymbolTable
0
LTYPE
5
14
100
AcDbSymbolTableRecord
100
AcDbLinetypeTableRecord
2
BYBLOCK
70
0
0
LTYPE
5
15
100
AcDbSymbolTableRecord
100
AcDbLinetypeTableRecord
2
BYLAYER
70
0
0
ENDTAB
0
TABLE
2
LAYER
5
2
100
AcDbSymbolTable
70
2
0
LAYER
5
50
100
AcDbSymbolTableRecord
100
AcDbLayerTableRecord
2
0
70
0
6
CONTINUOUS
0
ENDTAB
0
TABLE
2
STYLE
5
3
100
AcDbSymbolTable
70
1
0
STYLE
5
11
100
AcDbSymbolTableRecord
100
AcDbTextStyleTableRecord
2
STANDARD
70
0
0
ENDTAB
0
TABLE
2
VIEW
5
6
100
AcDbSymbolTable
70
0
0
ENDTAB
0
TABLE
2
UCS
5
7
100
AcDbSymbolTable
70
0
0
ENDTAB
0
TABLE
2
APPID
5
9
100
AcDbSymbolTable
70
2
0
APPID
5
12
100
AcDbSymbolTableRecord
100
AcDbRegAppTableRecord
2
ACAD
70
0
0
ENDTAB
0
TABLE
2
DIMSTYLE
5
A
100
AcDbSymbolTable
70
1
0
ENDTAB
0
TABLE
2
BLOCK_RECORD
5
1
100
AcDbSymbolTable
70
1
0
BLOCK_RECORD
5
1F
100
AcDbSymbolTableRecord
100
AcDbBlockTableRecord
2
*MODEL_SPACE
0
BLOCK_RECORD
5
1B
100
AcDbSymbolTableRecord
100
AcDbBlockTableRecord
2
*PAPER_SPACE
0
ENDTAB
0
ENDSEC
0
SECTION
2
BLOCKS
0
BLOCK
5
20
100
AcDbEntity
100
AcDbBlockBegin
2
*MODEL_SPACE
0
ENDBLK
5
21
100
AcDbEntity
100
AcDbBlockEnd
0
BLOCK
5
1C
100
AcDbEntity
100
AcDbBlockBegin
2
*PAPER_SPACE
0
ENDBLK
5
1D
100
AcDbEntity
100
AcDbBlockEnd
0
ENDSEC
0
SECTION
2
ENTITIES
0
LWPOLYLINE
5
100
100
AcDbEntity
8
0
100
AcDbPolyline
90
73
70
1
43
0.0
10
94.5
20
6
10
94.5
20
3
10
88.5
20
3
10
88.5
20
6
10
82.5
20
6
10
82.5
20
3
10
76.5
20
3
10
76.5
20
6
10
70.5
20
6
10
70.5
20
3
10
64.5
20
3
10
64.5
20
6
10
58.5
20
6
10
58.5
20
3
10
52.5
20
3
10
52.5
20
6
10
46.5
20
6
10
46.499999999999993
20
3
10
40.5
20
3
10
40.5
20
6
10
34.5
20
6
10
34.5
20
3
10
28.5
20
3
10
28.5
20
6
10
22.5
20
6
10
22.5
20
3
10
16.5
20
3
10
16.5
20
6
10
10.5
20
6
10
10.5
20
3
10
0
20
3.0000000000000009
10
0
20
8
10
3
20
8
10
3
20
14.000000000000002
10
0
20
14
10
0
20
19.999999999999996
10
3
20
19.999999999999996
10
3
20
26
10
0
20
26
10
0
20
30.999999999999996
10
171
20
30.999999999999996
10
171
20
26
10
168
20
26
10
168
20
19.999999999999996
10
171
20
19.999999999999996
10
171
20
14.000000000000002
10
168
20
14.000000000000002
10
168
20
8
10
171
20
7.9999999999999991
10
171
20
3
10
166.50000000000003
20
3
10
160.5
20
3
10
160.5
20
6
10
154.5
20
6
10
154.5
20
3
10
148.5
20
3
10
148.5
20
6
10
142.5
20
6
10
142.49999999999997
20
3
10
136.5
20
3
10
136.5
20
6
10
130.5
20
6
10
130.5
20
3
10
124.50000000000001
20
3
10
124.50000000000001
20
6
10
118.5
20
6
10
118.5
20
3
10
112.5
20
3
10
112.5
20
6
10
106.5
20
6
10
106.5
20
3
10
100.5
20
3
10
100.49999999999999
20
6
0
LWPOLYLINE
5
101
100
AcDbEntity
8
0
100
AcDbPolyline
90
73
70
1
43
0.0
10
177
20
19.999999999999996
10
174
20
19.999999999999996
10
174
20
26
10
177
20
26
10
177
20
30.999999999999996
10
342
20
30.999999999999996
10
342
20
26
10
345
20
26
10
345
20
19.999999999999996
10
342
20
20
10
342
20
14.000000000000002
10
345
20
14.000000000000002
10
345
20
8
10
342
20
8
10
342
20
3
10
340.50000000000006
20
3
10
334.5
20
3
10
334.5
20
6
10
328.5
20
6
10
328.5
20
3
10
322.5
20
3
10
322.5
20
6
10
316.5
20
6
10
316.5
20
3
10
310.5
20
3
10
310.5
20
6
10
304.5
20
6
10
304.5
20
3
10
298.5
20
3
10
298.5
20
6
10
292.5
20
6
10
292.5
20
3
10
286.5
20
3
10
286.5
20
6
10
280.5
20
6
10
280.5
20
3
10
274.5
20
3
10
274.5
20
6
10
268.5
20
6
10
268.5
20
3
10
262.5
20
3
10
262.5
20
6
10
256.5
20
6
10
256.5
20
3
10
250.5
20
3
10
250.5
20
6
10
244.5
20
6
10
244.5
20
3
10
238.49999999999997
20
3
10
238.49999999999997
20
6
10
232.49999999999997
20
6
10
232.49999999999997
20
3
10
226.50000000000003
20
3
10
226.50000000000003
20
6
10
220.5
20
6
10
220.50000000000006
20
3
10
214.50000000000003
20
3
10
214.50000000000003
20
6
10
208.5
20
6
10
208.5
20
3
10
202.5
20
3
10
202.5
20
6
10
196.5
20
6
10
196.5
20
3
10
190.5
20
3
10
190.5
20
6
10
184.5
20
6
10
184.5
20
3
10
177
20
3.0000000000000009
10
177
20
8
10
174
20
8
10
174
20
14.000000000000002
10
177
20
14.000000000000002
0
LWPOLYLINE
5
102
100
AcDbEntity
8
0
100
AcDbPolyline
90
73
70
1
43
0.0
10
0
20
56.999999999999993
10
0
20
61.999999999999993
10
171
20
61.999999999999993
10
171
20
57
10
168
20
57
10
168
20
51
10
171
20
51
10
171
20
45
10
168
20
45
10
168
20
39
10
171
20
39
10
171
20
34
10
166.50000000000003
20
34
10
160.5
20
34
10
160.5
20
37
10
154.5
20
37
10
154.5
20
34
10
148.5
20
34
10
148.5
20
37
10
142.5
20
37
10
142.49999999999997
20
34
10
136.5
20
34
10
136.5
20
37
10
130.5
20
37
10
130.5
20
34
10
124.50000000000001
20
34
10
124.50000000000001
20
37
10
118.5
20
37
10
118.5
20
34
10
112.5
20
34
10
112.5
20
37
10
106.5
20
37
10
106.5
20
34
10
100.5
20
34
10
100.5
20
37
10
94.5
20
37
10
94.5
20
34
10
88.5
20
34
10
88.5
20
37
10
82.5
20
37
10
82.5
20
34
10
76.5
20
34
10
76.5
20
37
10
70.5
20
37
10
70.5
20
34
10
64.5
20
34
10
64.5
20
37
10
58.5
20
37
10
58.5
20
34
10
52.5
20
34
10
52.5
20
37
10
46.5
20
37
10
46.499999999999993
20
34
10
40.5
20
34
10
40.5
20
37
10
34.5
20
37
10
34.5
20
34
10
28.5
20
34
10
28.5
20
37
10
22.5
20
37
10
22.5
20
34
10
16.5
20
34
10
16.5
20
37
10
10.5
20
37
10
10.5
20
34
10
0
20
34
10
0
20
39
10
3
20
39
10
3
20
45
10
0
20
45
10
0
20
51
10
3
20
51
10
3
20
57
0
LWPOLYLINE
5
103
100
AcDbEntity
8
0
100
AcDbPolyline
90
73
70
1
43
0.0
10
345
20
57
10
345
20
51
10
342
20
51
10
342
20
45
10
345
20
45
10
345
20
39
10
342
20
39
10
342
20
34
10
340.5
20
34
10
334.5
20
34
10
334.5
20
37
10
328.5
20
37
10
328.5
20
34
10
322.5
20
34
10
322.5
20
37
10
316.5
20
37
10
316.5
20
34
10
310.5
20
34
10
310.5
20
37
10
304.5
20
37
10
304.5
20
34
10
298.5
20
34
10
298.5
20
37
10
292.5
20
37
10
292.5
20
34
10
286.5
20
34
10
286.5
20
37
10
280.5
20
37
10
280.5
20
34
10
274.5
20
34
10
274.5
20
37
10
268.5
20
37
10
268.5
20
34
10
262.5
20
34
10
262.5
20
37
10
256.5
20
37
10
256.5
20
34
10
250.5
20
34
10
250.5
20
37
10
244.5
20
37
10
244.5
20
34
10
238.49999999999997
20
34
10
238.49999999999997
20
37
10
232.49999999999997
20
37
10
232.49999999999997
20
34
10
226.50000000000003
20
34
10
226.50000000000003
20
37
10
220.5
20
37
10
220.50000000000006
20
34
10
214.50000000000003
20
34
10
214.50000000000003
20
37
10
208.5
20
37
10
208.5
20
34
10
202.5
20
34
10
202.5
20
37
10
196.5
20
37
10
196.5
20
34
10
190.5
20
34
10
190.5
20
37
10
184.5
20
37
10
184.5
20
34
10
177
20
34
10
177
20
39
10
174
20
39
10
174
20
45
10
177
20
45
10
177
20
51
10
174
20
51
10
174
20
57
10
177
20
56.999999999999993
10
177
20
61.999999999999993
10
342
20
61.999999999999993
10
342
20
57
0
LWPOLYLINE
5
104
100
AcDbEntity
8
0
100
AcDbPolyline
90
216
70
1
43
0.0
10
388.49999999999994
20
171
10
394.49999999999994
20
171
10
394.49999999999994
20
174
10
400.5
20
174
10
400.5
20
171
10
406.5
20
171
10
406.5
20
174
10
412.5
20
174
10
412.5
20
171
10
418.5
20
171
10
418.5
20
174
10
424.5
20
174
10
424.49999999999994
20
171
10
430.5
20
171
10
430.5
20
174
10
436.5
20
174
10
436.5
20
171
10
442.5
20
171
10
442.5
20
174
10
448.5
20
174
10
448.5
20
171
10
454.5
20
171
10
454.5
20
174
10
460.50000000000006
20
174
10
460.50000000000006
20
171
10
466.50000000000006
20
171
10
466.5
20
174
10
472.5
20
174
10
472.5
20
171
10
478.5
20
171
10
478.5
20
174
10
484.5
20
174
10
484.5
20
171
10
490.50000000000006
20
171
10
490.50000000000006
20
174
10
496.50000000000006
20
174
10
496.50000000000006
20
171
10
502.49999999999994
20
171
10
502.49999999999994
20
174
10
508.49999999999994
20
174
10
508.49999999999994
20
171
10
516
20
171
10
516
20
169.50000000000003
10
516
20
163.5
10
519
20
163.5
10
519
20
157.5
10
516
20
157.5
10
516
20
151.5
10
519
20
151.5
10
519
20
145.5
10
516
20
145.5
10
516
20
139.5
10
519
20
139.5
10
519
20
133.5
10
516
20
133.5
10
516
20
127.5
10
519
20
127.5
10
519
20
121.5
10
516
20
121.5
10
516
20
115.5
10
519
20
115.49999999999999
10
519
20
109.5
10
516
20
109.5
10
516
20
103.5
10
519
20
103.5
10
519
20
97.5
10
516
20
97.5
10
516
20
91.5
10
519
20
91.5
10
519
20
85.5
10
516
20
85.5
10
516
20
79.5
10
519
20
79.5
10
519
20
73.5
10
516
20
73.5
10
516
20
67.499999999999986
10
519
20
67.5
10
519
20
61.5
10
516
20
61.5
10
516
20
55.5
10
519
20
55.5
10
519
20
49.5
10
516
20
49.5
10
516
20
43.5
10
519
20
43.5
10
519
20
37.5
10
516
20
37.5
10
516
20
31.500000000000004
10
519
20
31.500000000000004
10
519
20
25.5
10
516
20
25.5
10
516
20
19.5
10
519
20
19.5
10
519
20
13.499999999999998
10
516
20
13.499999999999998
10
516
20
6
10
514.5
20
6
10
508.49999999999994
20
6
10
508.49999999999994
20
3
10
502.49999999999994
20
3
10
502.5
20
6
10
496.50000000000006
20
6
10
496.50000000000006
20
3
10
490.50000000000006
20
3
10
490.50000000000006
20
6
10
484.5
20
6
10
484.5
20
3
10
478.5
20
3
10
478.5
20
6
10
472.5
20
6
10
472.5
20
3
10
466.50000000000006
20
3
10
466.50000000000006
20
6
10
460.50000000000006
20
6
10
460.50000000000006
20
3
10
454.5
20
3
10
454.5
20
6
10
448.5
20
6
10
448.5
20
3
10
442.5
20
3
10
442.5
20
6
10
436.5
20
6
10
436.5
20
3
10
430.5
20
3
10
430.5
20
6
10
424.5
20
6
10
424.5
20
3
10
418.5
20
3
10
418.5
20
6
10
412.5
20
6
10
412.5
20
3
10
406.5
20
3
10
406.5
20
6
10
400.5
20
6
10
400.5
20
3
10
394.49999999999994
20
3
10
394.5
20
6
10
388.5
20
6
10
388.49999999999994
20
3
10
382.5
20
3
10
382.5
20
6
10
376.5
20
6
10
376.50000000000006
20
3
10
370.50000000000006
20
3
10
370.50000000000006
20
6
10
364.5
20
6
10
364.5
20
3
10
358.5
20
3
10
358.5
20
6
10
351
20
6
10
351
20
7.4999999999999991
10
350.99999999999994
20
13.499999999999998
10
348
20
13.499999999999998
10
348
20
19.5
10
351
20
19.5
10
350.99999999999994
20
25.5
10
348
20
25.5
10
348.00000000000006
20
31.500000000000004
10
351
20
31.500000000000004
10
351
20
37.5
10
348
20
37.5
10
348.00000000000006
20
43.5
10
351
20
43.5
10
351
20
49.5
10
348
20
49.5
10
348.00000000000006
20
55.5
10
351
20
55.5
10
351
20
61.5
10
348
20
61.5
10
348
20
67.499999999999986
10
351
20
67.499999999999986
10
351
20
73.5
10
348
20
73.5
10
348
20
79.5
10
351
20
79.5
10
351
20
85.5
10
348
20
85.5
10
348
20
91.5
10
351
20
91.5
10
350.99999999999994
20
97.5
10
348
20
97.5
10
348.00000000000006
20
103.5
10
351
20
103.5
10
351
20
109.5
10
348
20
109.50000000000001
10
348.00000000000006
20
115.5
10
351
20
115.5
10
350.99999999999994
20
121.5
10
348
20
121.5
10
348.00000000000006
20
127.5
10
351
20
127.50000000000001
10
350.99999999999994
20
133.5
10
348
20
133.5
10
348.00000000000006
20
139.5
10
351
20
139.5
10
351
20
145.5
10
348
20
145.5
10
348.00000000000006
20
151.5
10
351
20
151.5
10
350.99999999999994
20
157.5
10
348
20
157.5
10
348.00000000000006
20
163.5
10
351
20
163.5
10
350.99999999999994
20
171
10
352.5
20
171
10
358.5
20
171
10
358.5
20
174
10
364.5
20
174
10
364.5
20
171
10
370.50000000000006
20
171
10
370.50000000000006
20
174
10
376.5
20
174
10
376.5
20
171
10
382.5
20
171
10
382.5
20
174
10
388.5
20
174
0
LWPOLYLINE
5
105
100
AcDbEntity
8
0
100
AcDbPolyline
90
4
70
1
43
0.0
10
476.99999999999994
20
131
10
375.99999999999994
20
131
10
375.99999999999994
20
66.000000000000014
10
476.99999999999994
20
66.000000000000014
0
CIRCLE
5
106
100
AcDbEntity
8
0
100
AcDbCircle
10
491
20
30.999999999999996
30
0
40
5.0000000000000089
0
LINE
5
107
100
AcDbEntity
8
0
100
AcDbLine
10
351
20
151.5
30
0
11
350.99999999999994
21
157.5
31
0
0
LINE
5
108
100
AcDbEntity
8
0
100
AcDbLine
10
350.99999999999994
20
171
30
0
11
358.5
21
171
31
0
0
LINE
5
109
100
AcDbEntity
8
0
100
AcDbLine
10
502.5
20
6
30
0
11
496.50000000000006
21
6
31
0
0
LINE
5
110
100
AcDbEntity
8
0
100
AcDbLine
10
516
20
13.499999999999998
30
0
11
516
21
5.9999999999999964
31
0
0
ENDSEC
0
SECTION
2
OBJECTS
0
DICTIONARY
5
C
100
AcDbDictionary
3
ACAD_GROUP
350
D
3
ACAD_MLINESTYLE
350
17
0
DICTIONARY
5
D
100
AcDbDictionary
0
DICTIONARY
5
1A
330
C
100
AcDbDictionary
0
DICTIONARY
5
17
100
AcDbDictionary
0
ENDSEC
0
EOF
